# xmcd CD database file
#
# Track frame offsets:
#	150
#	16190
#	36280
#	49532
#	63770
#	80317
#	99262
#	114025
#	129960
#	147985
#
# Disc length: 2275 seconds
#
# Revision: 0
# Processed by: cddbd v1.4PL0 Copyright (c) Steve Scherf et al.
# Submitted via: CDex 1.50Beta7
#
DISCID=6c08e10a
DTITLE=Bull and Bill - Cavalo Doido
DYEAR=1900
DGENRE=Country
TTITLE0=Vem Compadre
TTITLE1=Cavalo Doido
TTITLE2=Cigarro de Palha
TTITLE3=Cowboy
TTITLE4=Eu Quero ser Feliz
TTITLE5=Estrada da Vida
TTITLE6=Meu Cavalo
TTITLE7=Vaca Margarida
TTITLE8=Fivela de Ouro
TTITLE9=Cachimbo da Paz
EXTD=
EXTT0=
EXTT1=
EXTT2=
EXTT3=
EXTT4=
EXTT5=
EXTT6=
EXTT7=
EXTT8=
EXTT9=
PLAYORDER=
